<svg xmlns="http://www.w3.org/2000/svg" viewBox="0 0 200 200" width="200" height="200">
  <!-- Bison Body and Hindquarters (muted purple-gray) -->
  <path d="M 70 120 Q 75 105 85 95 Q 95 85 110 90 Q 125 95 135 105 Q 145 115 148 130 Q 151 145 145 155 Q 139 165 130 168 Q 121 171 110 170 Q 99 169 90 165 Q 81 161 75 155 Q 69 149 70 140 Q 71 131 70 120 Z" fill="#6B7280"/>
  
  <!-- Bison Belly (lighter gray) -->
  <path d="M 80 125 Q 90 120 100 122 Q 110 124 120 128 Q 130 132 135 140 Q 140 148 135 155 Q 130 162 120 160 Q 110 158 100 155 Q 90 152 82 148 Q 74 144 75 138 Q 76 132 80 125 Z" fill="#9CA3AF"/>
  
  <!-- Bison Hump (reddish-brown) -->
  <path d="M 50 75 Q 55 65 65 60 Q 75 55 85 58 Q 95 61 105 68 Q 115 75 120 85 Q 125 95 122 105 Q 119 115 110 118 Q 101 121 90 118 Q 79 115 70 110 Q 61 105 55 95 Q 49 85 50 75 Z" fill="#DC2626"/>
  
  <!-- Bison Neck (reddish-brown) -->
  <path d="M 50 75 Q 48 70 50 65 Q 52 60 55 58 Q 58 56 62 58 Q 66 60 70 65 Q 74 70 78 75 Q 82 80 85 85 Q 88 90 90 95 Q 92 100 90 105 Q 88 110 85 112 Q 82 114 78 112 Q 74 110 70 105 Q 66 100 62 95 Q 58 90 55 85 Q 52 80 50 75 Z" fill="#DC2626"/>
  
  <!-- Bison Head (reddish-brown) -->
  <path d="M 25 70 Q 20 65 20 58 Q 20 51 25 48 Q 30 45 35 46 Q 40 47 43 50 Q 46 53 47 58 Q 48 63 46 68 Q 44 73 40 75 Q 36 77 32 75 Q 28 73 26 70 Z" fill="#DC2626"/>
  
  <!-- Bison Muzzle (dark gray) -->
  <path d="M 15 60 Q 13 58 13 55 Q 13 52 15 50 Q 17 48 20 47 Q 23 46 25 47 Q 27 48 28 50 Q 29 52 29 55 Q 29 58 27 60 Q 25 62 22 62 Q 19 62 17 61 Z" fill="#4B5563"/>
  
  <!-- Bison Eye (black dot) -->
  <circle cx="38" cy="62" r="2.5" fill="#1F2937"/>
  
  <!-- Bison Horns (creamy off-white) - Left horn -->
  <path d="M 45 55 Q 43 50 45 45 Q 47 40 50 43 Q 53 46 55 50 Q 57 54 55 58 Q 53 62 50 60 Q 47 58 45 55 Z" fill="#FEF3C7"/>
  <!-- Right horn -->
  <path d="M 40 53 Q 38 48 40 43 Q 42 38 45 41 Q 48 44 50 48 Q 52 52 50 56 Q 48 60 45 58 Q 42 56 40 53 Z" fill="#FEF3C7"/>
  
  <!-- Bison Tail (short stub) -->
  <path d="M 150 145 Q 155 143 157 140 Q 159 137 157 135 Q 155 133 152 135 Q 149 137 147 140 Q 145 143 147 145 Z" fill="#6B7280"/>
  
  <!-- Bison Legs (dark gray) - Front left -->
  <path d="M 85 165 Q 87 175 85 180 Q 83 185 80 183 Q 77 181 79 176 Q 81 171 83 166 Z" fill="#4B5563"/>
  <!-- Front right -->
  <path d="M 105 167 Q 107 177 105 182 Q 103 187 100 185 Q 97 183 99 178 Q 101 173 103 168 Z" fill="#4B5563"/>
  <!-- Back left -->
  <path d="M 125 168 Q 127 178 125 183 Q 123 188 120 186 Q 117 184 119 179 Q 121 174 123 169 Z" fill="#4B5563"/>
  <!-- Back right -->
  <path d="M 140 170 Q 142 180 140 185 Q 138 190 135 188 Q 132 186 134 181 Q 136 176 138 171 Z" fill="#4B5563"/>
</svg>
