<svg xmlns="http://www.w3.org/2000/svg" viewBox="0 1.100000023841858 153.1999969482422 39.30000305175781" data-asc="0.79" width="153.1999969482422" height="39.30000305175781"><defs/><g fill="#ea441a"><g transform="translate(0, 0)"><path d="M21.55 39.50L0 39.50L0 2L19.45 2Q24.85 2 27.15 4.10Q29.45 6.20 29.45 10.20Q29.45 14.25 28 16.42Q26.55 18.60 24.05 19.30L24.05 19.65Q31.30 20.90 31.30 29.55Q31.30 34.05 28.93 36.77Q26.55 39.50 21.55 39.50M16.70 24.55L12 24.55L12 30.70L16.60 30.70Q19.15 30.70 19.15 27.60Q19.15 24.55 16.70 24.55M15.80 10.20L12 10.20L12 15.80L15.70 15.80Q18 15.80 18 13Q18 10.20 15.80 10.20ZM47.50 39.50L47.50 2L35.50 2L35.50 39.50L47.50 39.50ZM52 38.85L53.70 28.95Q59.20 30.30 63.65 30.30Q65.90 30.30 67.63 30.23Q69.35 30.15 70.70 29.95L70.70 26.95L65.30 26.50Q61.65 26.15 59.20 25.30Q56.75 24.45 55.27 22.97Q53.80 21.50 53.17 19.42Q52.55 17.35 52.55 14.55Q52.55 10.70 53.35 8.13Q54.15 5.55 55.90 3.98Q57.65 2.40 60.42 1.75Q63.20 1.10 67.20 1.10Q75.15 1.10 81.60 2.60L80.10 12.20Q74.50 11.30 71.15 11.30Q67.80 11.30 65.45 11.60L65.45 14.55L69.75 14.95Q73.70 15.35 76.35 16.27Q79 17.20 80.63 18.70Q82.25 20.20 82.93 22.25Q83.60 24.30 83.60 26.95Q83.60 30.75 82.60 33.35Q81.60 35.95 80.20 37.30Q79.05 38.40 77.35 39.02Q75.65 39.65 73.75 39.95Q71.85 40.25 69.92 40.33Q68 40.40 66.45 40.40Q62.55 40.40 58.95 40Q55.35 39.60 52 38.85ZM112.10 16.65L100.10 16.65L100.10 11.60L113 11.60L114.50 2L88.10 2L88.10 39.50L114.80 39.50L114.80 29.90L100.10 29.90L100.10 25.35L112.10 25.35L112.10 16.65ZM153.20 39.50L141.90 39.50L132.75 26.20Q132.50 25.85 132.35 25.15Q132.20 24.45 132.15 23.30L131.90 23.30L131.90 39.50L119.90 39.50L119.90 2L131.20 2L140.35 15.30Q140.60 15.65 140.75 16.35Q140.90 17.05 140.95 18.20L141.20 18.20L141.20 2L153.20 2L153.20 39.50Z"/></g></g></svg>